{
	"patcher" : 	{
		"fileversion" : 1,
		"appversion" : 		{
			"major" : 8,
			"minor" : 1,
			"revision" : 11,
			"architecture" : "x64",
			"modernui" : 1
		}
,
		"classnamespace" : "box",
		"rect" : [ 34.0, 87.0, 1030.0, 701.0 ],
		"bglocked" : 0,
		"openinpresentation" : 0,
		"default_fontsize" : 12.0,
		"default_fontface" : 0,
		"default_fontname" : "Arial",
		"gridonopen" : 1,
		"gridsize" : [ 15.0, 15.0 ],
		"gridsnaponopen" : 1,
		"objectsnaponopen" : 1,
		"statusbarvisible" : 2,
		"toolbarvisible" : 1,
		"lefttoolbarpinned" : 0,
		"toptoolbarpinned" : 0,
		"righttoolbarpinned" : 0,
		"bottomtoolbarpinned" : 0,
		"toolbars_unpinned_last_save" : 0,
		"tallnewobj" : 0,
		"boxanimatetime" : 200,
		"enablehscroll" : 1,
		"enablevscroll" : 1,
		"devicewidth" : 0.0,
		"description" : "",
		"digest" : "",
		"tags" : "",
		"style" : "",
		"subpatcher_template" : "",
		"assistshowspatchername" : 0,
		"boxes" : [ 			{
				"box" : 				{
					"id" : "obj-55",
					"maxclass" : "newobj",
					"numinlets" : 2,
					"numoutlets" : 1,
					"outlettype" : [ "" ],
					"patching_rect" : [ 1085.0, 1066.0, 54.0, 22.0 ],
					"text" : "pack 0 0"
				}

			}
, 			{
				"box" : 				{
					"id" : "obj-54",
					"maxclass" : "newobj",
					"numinlets" : 0,
					"numoutlets" : 1,
					"outlettype" : [ "" ],
					"patching_rect" : [ 86.0, 1208.000004529953003, 155.0, 22.0 ],
					"text" : "r #0frommidikeyboard_note"
				}

			}
, 			{
				"box" : 				{
					"id" : "obj-53",
					"maxclass" : "newobj",
					"numinlets" : 0,
					"numoutlets" : 1,
					"outlettype" : [ "" ],
					"patching_rect" : [ 86.0, 964.500004529953003, 155.0, 22.0 ],
					"text" : "r #0frommidikeyboard_note"
				}

			}
, 			{
				"box" : 				{
					"id" : "obj-52",
					"maxclass" : "newobj",
					"numinlets" : 0,
					"numoutlets" : 1,
					"outlettype" : [ "" ],
					"patching_rect" : [ 86.0, 740.0, 155.0, 22.0 ],
					"text" : "r #0frommidikeyboard_note"
				}

			}
, 			{
				"box" : 				{
					"id" : "obj-51",
					"maxclass" : "newobj",
					"numinlets" : 0,
					"numoutlets" : 1,
					"outlettype" : [ "" ],
					"patching_rect" : [ 86.0, 493.0, 155.0, 22.0 ],
					"text" : "r #0frommidikeyboard_note"
				}

			}
, 			{
				"box" : 				{
					"id" : "obj-42",
					"maxclass" : "newobj",
					"numinlets" : 0,
					"numoutlets" : 1,
					"outlettype" : [ "" ],
					"patching_rect" : [ 86.0, 292.5, 155.0, 22.0 ],
					"text" : "r #0frommidikeyboard_note"
				}

			}
, 			{
				"box" : 				{
					"id" : "obj-50",
					"maxclass" : "newobj",
					"numinlets" : 0,
					"numoutlets" : 1,
					"outlettype" : [ "" ],
					"patching_rect" : [ 86.0, 108.500004529953003, 155.0, 22.0 ],
					"text" : "r #0frommidikeyboard_note"
				}

			}
, 			{
				"box" : 				{
					"id" : "obj-49",
					"maxclass" : "newobj",
					"numinlets" : 0,
					"numoutlets" : 1,
					"outlettype" : [ "" ],
					"patching_rect" : [ 139.5, 1232.000004529953003, 82.0, 22.0 ],
					"text" : "r #0start_stop"
				}

			}
, 			{
				"box" : 				{
					"id" : "obj-47",
					"maxclass" : "newobj",
					"numinlets" : 0,
					"numoutlets" : 1,
					"outlettype" : [ "" ],
					"patching_rect" : [ 139.5, 987.0, 82.0, 22.0 ],
					"text" : "r #0start_stop"
				}

			}
, 			{
				"box" : 				{
					"id" : "obj-46",
					"maxclass" : "newobj",
					"numinlets" : 0,
					"numoutlets" : 1,
					"outlettype" : [ "" ],
					"patching_rect" : [ 139.5, 766.333338141441345, 82.0, 22.0 ],
					"text" : "r #0start_stop"
				}

			}
, 			{
				"box" : 				{
					"id" : "obj-45",
					"maxclass" : "newobj",
					"numinlets" : 0,
					"numoutlets" : 1,
					"outlettype" : [ "" ],
					"patching_rect" : [ 139.5, 517.0, 82.0, 22.0 ],
					"text" : "r #0start_stop"
				}

			}
, 			{
				"box" : 				{
					"id" : "obj-43",
					"maxclass" : "newobj",
					"numinlets" : 0,
					"numoutlets" : 1,
					"outlettype" : [ "" ],
					"patching_rect" : [ 139.5, 316.5, 82.0, 22.0 ],
					"text" : "r #0start_stop"
				}

			}
, 			{
				"box" : 				{
					"id" : "obj-10",
					"maxclass" : "newobj",
					"numinlets" : 0,
					"numoutlets" : 1,
					"outlettype" : [ "" ],
					"patching_rect" : [ 143.0, 84.0, 82.0, 22.0 ],
					"text" : "r #0start_stop"
				}

			}
, 			{
				"box" : 				{
					"id" : "obj-44",
					"maxclass" : "kslider",
					"mode" : 1,
					"numinlets" : 2,
					"numoutlets" : 2,
					"outlettype" : [ "int", "int" ],
					"parameter_enable" : 0,
					"patching_rect" : [ 1021.666562736034393, 964.500004529953003, 336.0, 53.0 ],
					"presentation" : 1,
					"presentation_rect" : [ 21.0, 108.0, 504.0, 76.0 ]
				}

			}
, 			{
				"box" : 				{
					"id" : "obj-669",
					"linecount" : 3,
					"maxclass" : "comment",
					"numinlets" : 1,
					"numoutlets" : 0,
					"patching_rect" : [ 926.650104463100433, 894.000004529953003, 150.0, 47.0 ],
					"text" : "channel one is notes, everything else is a flush message"
				}

			}
, 			{
				"box" : 				{
					"id" : "obj-664",
					"maxclass" : "message",
					"numinlets" : 2,
					"numoutlets" : 1,
					"outlettype" : [ "" ],
					"patching_rect" : [ 904.650104463100433, 863.000004529953003, 50.0, 22.0 ],
					"text" : "1"
				}

			}
, 			{
				"box" : 				{
					"id" : "obj-650",
					"maxclass" : "newobj",
					"numinlets" : 2,
					"numoutlets" : 1,
					"outlettype" : [ "" ],
					"patching_rect" : [ 759.150104463100433, 919.000004529953003, 161.0, 22.0 ],
					"text" : "if $i2 == 1 then $i1 else flush"
				}

			}
, 			{
				"box" : 				{
					"id" : "obj-643",
					"maxclass" : "message",
					"numinlets" : 2,
					"numoutlets" : 1,
					"outlettype" : [ "" ],
					"patching_rect" : [ 732.650104463100433, 866.000004529953003, 50.0, 22.0 ],
					"text" : "55"
				}

			}
, 			{
				"box" : 				{
					"id" : "obj-640",
					"maxclass" : "newobj",
					"numinlets" : 1,
					"numoutlets" : 3,
					"outlettype" : [ "int", "int", "int" ],
					"patching_rect" : [ 819.150104463100433, 832.000004529953003, 41.0, 22.0 ],
					"presentation" : 1,
					"presentation_rect" : [ 21.0, 84.0, 41.0, 22.0 ],
					"text" : "notein"
				}

			}
, 			{
				"box" : 				{
					"id" : "obj-637",
					"maxclass" : "newobj",
					"numinlets" : 1,
					"numoutlets" : 0,
					"patching_rect" : [ 1080.666562736034393, 1111.500004529953003, 157.0, 22.0 ],
					"text" : "s #0frommidikeyboard_note"
				}

			}
, 			{
				"box" : 				{
					"id" : "obj-619",
					"maxclass" : "comment",
					"numinlets" : 1,
					"numoutlets" : 0,
					"patching_rect" : [ 1652.457796394824982, 720.333338141441345, 150.0, 20.0 ],
					"presentation" : 1,
					"presentation_rect" : [ 783.0, 359.0, 150.0, 20.0 ],
					"text" : "input from midi keyboard"
				}

			}
, 			{
				"box" : 				{
					"id" : "obj-620",
					"maxclass" : "newobj",
					"numinlets" : 1,
					"numoutlets" : 0,
					"patching_rect" : [ 1616.457796394824982, 789.333338141441345, 111.0, 22.0 ],
					"text" : "s #0fromkeyboard6"
				}

			}
, 			{
				"box" : 				{
					"id" : "obj-621",
					"maxclass" : "newobj",
					"numinlets" : 0,
					"numoutlets" : 1,
					"outlettype" : [ "" ],
					"patching_rect" : [ 1616.457796394824982, 664.333338141441345, 123.0, 22.0 ],
					"text" : "r #0midikeyboardtoall"
				}

			}
, 			{
				"box" : 				{
					"id" : "obj-622",
					"int" : 1,
					"maxclass" : "gswitch",
					"numinlets" : 3,
					"numoutlets" : 1,
					"outlettype" : [ "" ],
					"parameter_enable" : 0,
					"patching_rect" : [ 1616.457796394824982, 751.333338141441345, 41.0, 32.0 ]
				}

			}
, 			{
				"box" : 				{
					"id" : "obj-623",
					"maxclass" : "newobj",
					"numinlets" : 0,
					"numoutlets" : 1,
					"outlettype" : [ "" ],
					"patching_rect" : [ 1638.457796394824982, 690.333338141441345, 155.0, 22.0 ],
					"text" : "r #0frommidikeyboard_note"
				}

			}
, 			{
				"box" : 				{
					"id" : "obj-624",
					"maxclass" : "toggle",
					"numinlets" : 1,
					"numoutlets" : 1,
					"outlettype" : [ "int" ],
					"parameter_enable" : 0,
					"patching_rect" : [ 1616.457796394824982, 720.333338141441345, 24.0, 24.0 ],
					"presentation" : 1,
					"presentation_rect" : [ 757.0, 359.0, 24.0, 24.0 ]
				}

			}
, 			{
				"box" : 				{
					"id" : "obj-625",
					"maxclass" : "comment",
					"numinlets" : 1,
					"numoutlets" : 0,
					"patching_rect" : [ 1455.457796394824982, 720.333338141441345, 150.0, 20.0 ],
					"presentation" : 1,
					"presentation_rect" : [ 420.0, 355.0, 150.0, 20.0 ],
					"text" : "input from midi keyboard"
				}

			}
, 			{
				"box" : 				{
					"id" : "obj-626",
					"maxclass" : "newobj",
					"numinlets" : 1,
					"numoutlets" : 0,
					"patching_rect" : [ 1419.457796394824982, 789.333338141441345, 111.0, 22.0 ],
					"text" : "s #0fromkeyboard5"
				}

			}
, 			{
				"box" : 				{
					"id" : "obj-627",
					"maxclass" : "newobj",
					"numinlets" : 0,
					"numoutlets" : 1,
					"outlettype" : [ "" ],
					"patching_rect" : [ 1419.457796394824982, 664.333338141441345, 123.0, 22.0 ],
					"text" : "r #0midikeyboardtoall"
				}

			}
, 			{
				"box" : 				{
					"id" : "obj-628",
					"int" : 1,
					"maxclass" : "gswitch",
					"numinlets" : 3,
					"numoutlets" : 1,
					"outlettype" : [ "" ],
					"parameter_enable" : 0,
					"patching_rect" : [ 1419.457796394824982, 751.333338141441345, 41.0, 32.0 ]
				}

			}
, 			{
				"box" : 				{
					"id" : "obj-629",
					"maxclass" : "newobj",
					"numinlets" : 0,
					"numoutlets" : 1,
					"outlettype" : [ "" ],
					"patching_rect" : [ 1441.457796394824982, 690.333338141441345, 155.0, 22.0 ],
					"text" : "r #0frommidikeyboard_note"
				}

			}
, 			{
				"box" : 				{
					"id" : "obj-630",
					"maxclass" : "toggle",
					"numinlets" : 1,
					"numoutlets" : 1,
					"outlettype" : [ "int" ],
					"parameter_enable" : 0,
					"patching_rect" : [ 1419.457796394824982, 720.333338141441345, 24.0, 24.0 ],
					"presentation" : 1,
					"presentation_rect" : [ 394.0, 355.0, 24.0, 24.0 ]
				}

			}
, 			{
				"box" : 				{
					"id" : "obj-631",
					"maxclass" : "comment",
					"numinlets" : 1,
					"numoutlets" : 0,
					"patching_rect" : [ 1261.457796394824982, 720.333338141441345, 150.0, 20.0 ],
					"presentation" : 1,
					"presentation_rect" : [ 51.0, 354.0, 150.0, 20.0 ],
					"text" : "input from midi keyboard"
				}

			}
, 			{
				"box" : 				{
					"id" : "obj-632",
					"maxclass" : "newobj",
					"numinlets" : 1,
					"numoutlets" : 0,
					"patching_rect" : [ 1225.457796394824982, 789.333338141441345, 111.0, 22.0 ],
					"text" : "s #0fromkeyboard4"
				}

			}
, 			{
				"box" : 				{
					"id" : "obj-633",
					"maxclass" : "newobj",
					"numinlets" : 0,
					"numoutlets" : 1,
					"outlettype" : [ "" ],
					"patching_rect" : [ 1225.457796394824982, 664.333338141441345, 123.0, 22.0 ],
					"text" : "r #0midikeyboardtoall"
				}

			}
, 			{
				"box" : 				{
					"id" : "obj-634",
					"int" : 1,
					"maxclass" : "gswitch",
					"numinlets" : 3,
					"numoutlets" : 1,
					"outlettype" : [ "" ],
					"parameter_enable" : 0,
					"patching_rect" : [ 1225.457796394824982, 751.333338141441345, 41.0, 32.0 ]
				}

			}
, 			{
				"box" : 				{
					"id" : "obj-635",
					"maxclass" : "newobj",
					"numinlets" : 0,
					"numoutlets" : 1,
					"outlettype" : [ "" ],
					"patching_rect" : [ 1247.457796394824982, 690.333338141441345, 155.0, 22.0 ],
					"text" : "r #0frommidikeyboard_note"
				}

			}
, 			{
				"box" : 				{
					"id" : "obj-636",
					"maxclass" : "toggle",
					"numinlets" : 1,
					"numoutlets" : 1,
					"outlettype" : [ "int" ],
					"parameter_enable" : 0,
					"patching_rect" : [ 1225.457796394824982, 720.333338141441345, 24.0, 24.0 ],
					"presentation" : 1,
					"presentation_rect" : [ 21.0, 354.0, 24.0, 24.0 ]
				}

			}
, 			{
				"box" : 				{
					"id" : "obj-613",
					"maxclass" : "comment",
					"numinlets" : 1,
					"numoutlets" : 0,
					"patching_rect" : [ 1035.666562736034393, 720.333338141441345, 150.0, 20.0 ],
					"presentation" : 1,
					"presentation_rect" : [ 793.0, 199.0, 150.0, 20.0 ],
					"text" : "input from midi keyboard"
				}

			}
, 			{
				"box" : 				{
					"id" : "obj-614",
					"maxclass" : "newobj",
					"numinlets" : 1,
					"numoutlets" : 0,
					"patching_rect" : [ 999.666562736034393, 789.333338141441345, 111.0, 22.0 ],
					"text" : "s #0fromkeyboard3"
				}

			}
, 			{
				"box" : 				{
					"id" : "obj-615",
					"maxclass" : "newobj",
					"numinlets" : 0,
					"numoutlets" : 1,
					"outlettype" : [ "" ],
					"patching_rect" : [ 999.666562736034393, 664.333338141441345, 123.0, 22.0 ],
					"text" : "r #0midikeyboardtoall"
				}

			}
, 			{
				"box" : 				{
					"id" : "obj-616",
					"int" : 1,
					"maxclass" : "gswitch",
					"numinlets" : 3,
					"numoutlets" : 1,
					"outlettype" : [ "" ],
					"parameter_enable" : 0,
					"patching_rect" : [ 999.666562736034393, 751.333338141441345, 41.0, 32.0 ]
				}

			}
, 			{
				"box" : 				{
					"id" : "obj-617",
					"maxclass" : "newobj",
					"numinlets" : 0,
					"numoutlets" : 1,
					"outlettype" : [ "" ],
					"patching_rect" : [ 1021.666562736034393, 690.333338141441345, 155.0, 22.0 ],
					"text" : "r #0frommidikeyboard_note"
				}

			}
, 			{
				"box" : 				{
					"id" : "obj-618",
					"maxclass" : "toggle",
					"numinlets" : 1,
					"numoutlets" : 1,
					"outlettype" : [ "int" ],
					"parameter_enable" : 0,
					"patching_rect" : [ 999.666562736034393, 720.333338141441345, 24.0, 24.0 ],
					"presentation" : 1,
					"presentation_rect" : [ 757.0, 199.0, 24.0, 24.0 ]
				}

			}
, 			{
				"box" : 				{
					"id" : "obj-607",
					"maxclass" : "newobj",
					"numinlets" : 1,
					"numoutlets" : 0,
					"patching_rect" : [ 608.666562736034393, 630.333338141441345, 125.0, 22.0 ],
					"text" : "s #0midikeyboardtoall"
				}

			}
, 			{
				"box" : 				{
					"id" : "obj-606",
					"maxclass" : "comment",
					"numinlets" : 1,
					"numoutlets" : 0,
					"patching_rect" : [ 638.666562736034393, 599.333338141441345, 173.0, 20.0 ],
					"presentation" : 1,
					"presentation_rect" : [ 97.0, 85.0, 173.0, 20.0 ],
					"text" : "midi keyboard to all ksliders"
				}

			}
, 			{
				"box" : 				{
					"id" : "obj-604",
					"maxclass" : "toggle",
					"numinlets" : 1,
					"numoutlets" : 1,
					"outlettype" : [ "int" ],
					"parameter_enable" : 0,
					"patching_rect" : [ 608.666562736034393, 597.333338141441345, 24.0, 24.0 ],
					"presentation" : 1,
					"presentation_rect" : [ 67.0, 83.0, 24.0, 24.0 ]
				}

			}
, 			{
				"box" : 				{
					"id" : "obj-595",
					"maxclass" : "comment",
					"numinlets" : 1,
					"numoutlets" : 0,
					"patching_rect" : [ 838.666562736034393, 720.333338141441345, 150.0, 20.0 ],
					"presentation" : 1,
					"presentation_rect" : [ 420.0, 199.0, 150.0, 20.0 ],
					"text" : "input from midi keyboard"
				}

			}
, 			{
				"box" : 				{
					"id" : "obj-596",
					"maxclass" : "newobj",
					"numinlets" : 1,
					"numoutlets" : 0,
					"patching_rect" : [ 802.666562736034393, 789.333338141441345, 111.0, 22.0 ],
					"text" : "s #0fromkeyboard2"
				}

			}
, 			{
				"box" : 				{
					"id" : "obj-597",
					"maxclass" : "newobj",
					"numinlets" : 0,
					"numoutlets" : 1,
					"outlettype" : [ "" ],
					"patching_rect" : [ 802.666562736034393, 664.333338141441345, 123.0, 22.0 ],
					"text" : "r #0midikeyboardtoall"
				}

			}
, 			{
				"box" : 				{
					"id" : "obj-598",
					"int" : 1,
					"maxclass" : "gswitch",
					"numinlets" : 3,
					"numoutlets" : 1,
					"outlettype" : [ "" ],
					"parameter_enable" : 0,
					"patching_rect" : [ 802.666562736034393, 751.333338141441345, 41.0, 32.0 ]
				}

			}
, 			{
				"box" : 				{
					"id" : "obj-599",
					"maxclass" : "newobj",
					"numinlets" : 0,
					"numoutlets" : 1,
					"outlettype" : [ "" ],
					"patching_rect" : [ 824.666562736034393, 690.333338141441345, 155.0, 22.0 ],
					"text" : "r #0frommidikeyboard_note"
				}

			}
, 			{
				"box" : 				{
					"id" : "obj-601",
					"maxclass" : "toggle",
					"numinlets" : 1,
					"numoutlets" : 1,
					"outlettype" : [ "int" ],
					"parameter_enable" : 0,
					"patching_rect" : [ 802.666562736034393, 720.333338141441345, 24.0, 24.0 ],
					"presentation" : 1,
					"presentation_rect" : [ 394.0, 197.0, 24.0, 24.0 ]
				}

			}
, 			{
				"box" : 				{
					"id" : "obj-594",
					"maxclass" : "comment",
					"numinlets" : 1,
					"numoutlets" : 0,
					"patching_rect" : [ 644.666562736034393, 720.333338141441345, 150.0, 20.0 ],
					"presentation" : 1,
					"presentation_rect" : [ 50.0, 197.0, 150.0, 20.0 ],
					"text" : "input from midi keyboard"
				}

			}
, 			{
				"box" : 				{
					"id" : "obj-591",
					"maxclass" : "newobj",
					"numinlets" : 1,
					"numoutlets" : 0,
					"patching_rect" : [ 608.666562736034393, 789.333338141441345, 111.0, 22.0 ],
					"text" : "s #0fromkeyboard1"
				}

			}
, 			{
				"box" : 				{
					"id" : "obj-590",
					"maxclass" : "newobj",
					"numinlets" : 0,
					"numoutlets" : 1,
					"outlettype" : [ "" ],
					"patching_rect" : [ 608.666562736034393, 664.333338141441345, 123.0, 22.0 ],
					"text" : "r #0midikeyboardtoall"
				}

			}
, 			{
				"box" : 				{
					"id" : "obj-588",
					"int" : 1,
					"maxclass" : "gswitch",
					"numinlets" : 3,
					"numoutlets" : 1,
					"outlettype" : [ "" ],
					"parameter_enable" : 0,
					"patching_rect" : [ 608.666562736034393, 751.333338141441345, 41.0, 32.0 ]
				}

			}
, 			{
				"box" : 				{
					"id" : "obj-585",
					"maxclass" : "newobj",
					"numinlets" : 0,
					"numoutlets" : 1,
					"outlettype" : [ "" ],
					"patching_rect" : [ 630.666562736034393, 690.333338141441345, 155.0, 22.0 ],
					"text" : "r #0frommidikeyboard_note"
				}

			}
, 			{
				"box" : 				{
					"id" : "obj-584",
					"maxclass" : "toggle",
					"numinlets" : 1,
					"numoutlets" : 1,
					"outlettype" : [ "int" ],
					"parameter_enable" : 0,
					"patching_rect" : [ 608.666562736034393, 720.333338141441345, 24.0, 24.0 ],
					"presentation" : 1,
					"presentation_rect" : [ 21.0, 197.0, 24.0, 24.0 ]
				}

			}
, 			{
				"box" : 				{
					"angle" : 270.0,
					"bgcolor" : [ 0.647058823529412, 0.188235294117647, 0.188235294117647, 0.13 ],
					"id" : "obj-684",
					"maxclass" : "panel",
					"mode" : 0,
					"numinlets" : 1,
					"numoutlets" : 0,
					"patching_rect" : [ 565.0, 580.333328425884247, 1326.666702389717102, 457.333343148231506 ],
					"proportion" : 0.5
				}

			}
, 			{
				"box" : 				{
					"id" : "obj-31",
					"maxclass" : "newobj",
					"numinlets" : 1,
					"numoutlets" : 3,
					"outlettype" : [ "int", "int", "int" ],
					"patching_rect" : [ 86.0, 1319.000004529953003, 77.0, 22.0 ],
					"text" : "unpack 0 0 0"
				}

			}
, 			{
				"box" : 				{
					"bgcolor" : [ 1.0, 0.659664, 0.937295, 1.0 ],
					"elementcolor" : [ 0.349019607843137, 0.349019607843137, 0.349019607843137, 0.15 ],
					"floatoutput" : 1,
					"id" : "obj-32",
					"knobcolor" : [ 0.913725, 1.0, 0.0, 0.488336 ],
					"maxclass" : "slider",
					"numinlets" : 1,
					"numoutlets" : 1,
					"outlettype" : [ "" ],
					"parameter_enable" : 0,
					"patching_rect" : [ 86.0, 1291.000004529953003, 336.0, 26.0 ],
					"presentation" : 1,
					"presentation_rect" : [ 757.0, 403.5, 336.0, 22.0 ],
					"size" : 1.0
				}

			}
, 			{
				"box" : 				{
					"id" : "obj-33",
					"maxclass" : "kslider",
					"numinlets" : 2,
					"numoutlets" : 2,
					"outlettype" : [ "int", "int" ],
					"parameter_enable" : 0,
					"patching_rect" : [ 86.0, 1345.500004529953003, 336.0, 53.0 ],
					"presentation" : 1,
					"presentation_rect" : [ 757.0, 426.5, 336.0, 53.0 ]
				}

			}
, 			{
				"box" : 				{
					"id" : "obj-34",
					"maxclass" : "newobj",
					"numinlets" : 1,
					"numoutlets" : 3,
					"outlettype" : [ "int", "int", "int" ],
					"patching_rect" : [ 86.0, 1071.000004529953003, 77.0, 22.0 ],
					"text" : "unpack 0 0 0"
				}

			}
, 			{
				"box" : 				{
					"bgcolor" : [ 1.0, 0.659664, 0.937295, 1.0 ],
					"elementcolor" : [ 0.349019607843137, 0.349019607843137, 0.349019607843137, 0.15 ],
					"floatoutput" : 1,
					"id" : "obj-35",
					"knobcolor" : [ 0.913725, 1.0, 0.0, 0.488336 ],
					"maxclass" : "slider",
					"numinlets" : 1,
					"numoutlets" : 1,
					"outlettype" : [ "" ],
					"parameter_enable" : 0,
					"patching_rect" : [ 86.0, 1043.000004529953003, 336.0, 26.0 ],
					"presentation" : 1,
					"presentation_rect" : [ 393.0, 402.5, 336.0, 23.0 ],
					"size" : 1.0
				}

			}
, 			{
				"box" : 				{
					"id" : "obj-36",
					"maxclass" : "kslider",
					"numinlets" : 2,
					"numoutlets" : 2,
					"outlettype" : [ "int", "int" ],
					"parameter_enable" : 0,
					"patching_rect" : [ 86.0, 1097.500004529953003, 336.0, 53.0 ],
					"presentation" : 1,
					"presentation_rect" : [ 393.0, 426.5, 336.0, 53.0 ]
				}

			}
, 			{
				"box" : 				{
					"fontname" : "Cooper Std",
					"fontsize" : 18.0,
					"id" : "obj-37",
					"maxclass" : "comment",
					"numinlets" : 1,
					"numoutlets" : 0,
					"patching_rect" : [ 219.0, 1256.000004529953003, 280.0, 24.0 ],
					"presentation" : 1,
					"presentation_rect" : [ 879.0, 384.0, 214.0, 24.0 ],
					"text" : "click to open instrument 6"
				}

			}
, 			{
				"box" : 				{
					"fontname" : "Cooper Std",
					"fontsize" : 18.0,
					"id" : "obj-38",
					"maxclass" : "comment",
					"numinlets" : 1,
					"numoutlets" : 0,
					"patching_rect" : [ 219.0, 1013.000004529953003, 280.0, 24.0 ],
					"presentation" : 1,
					"presentation_rect" : [ 516.0, 377.5, 217.0, 24.0 ],
					"text" : "click to open instrument 5"
				}

			}
, 			{
				"box" : 				{
					"fontname" : "Cooper Std Black",
					"fontsize" : 14.0,
					"id" : "obj-39",
					"maxclass" : "newobj",
					"numinlets" : 3,
					"numoutlets" : 3,
					"outlettype" : [ "", "", "" ],
					"patching_rect" : [ 86.0, 1255.000004529953003, 126.0, 22.0 ],
					"presentation" : 1,
					"presentation_rect" : [ 757.0, 384.0, 126.0, 22.0 ],
					"text" : "vchorusReceive"
				}

			}
, 			{
				"box" : 				{
					"fontname" : "Cooper Std Black",
					"fontsize" : 14.0,
					"id" : "obj-41",
					"maxclass" : "newobj",
					"numinlets" : 3,
					"numoutlets" : 3,
					"outlettype" : [ "", "", "" ],
					"patching_rect" : [ 86.0, 1013.000004529953003, 126.0, 22.0 ],
					"presentation" : 1,
					"presentation_rect" : [ 393.0, 379.5, 126.0, 22.0 ],
					"text" : "vchorusReceive"
				}

			}
, 			{
				"box" : 				{
					"id" : "obj-27",
					"maxclass" : "newobj",
					"numinlets" : 1,
					"numoutlets" : 3,
					"outlettype" : [ "int", "int", "int" ],
					"patching_rect" : [ 86.0, 853.333338141441345, 77.0, 22.0 ],
					"text" : "unpack 0 0 0"
				}

			}
, 			{
				"box" : 				{
					"bgcolor" : [ 1.0, 0.659664, 0.937295, 1.0 ],
					"elementcolor" : [ 0.349019607843137, 0.349019607843137, 0.349019607843137, 0.15 ],
					"floatoutput" : 1,
					"id" : "obj-28",
					"knobcolor" : [ 0.913725, 1.0, 0.0, 0.488336 ],
					"maxclass" : "slider",
					"numinlets" : 1,
					"numoutlets" : 1,
					"outlettype" : [ "" ],
					"parameter_enable" : 0,
					"patching_rect" : [ 86.0, 825.333338141441345, 336.0, 26.0 ],
					"presentation" : 1,
					"presentation_rect" : [ 21.0, 401.0, 336.0, 25.0 ],
					"size" : 1.0
				}

			}
, 			{
				"box" : 				{
					"id" : "obj-30",
					"maxclass" : "kslider",
					"numinlets" : 2,
					"numoutlets" : 2,
					"outlettype" : [ "int", "int" ],
					"parameter_enable" : 0,
					"patching_rect" : [ 86.0, 879.833338141441345, 336.0, 53.0 ],
					"presentation" : 1,
					"presentation_rect" : [ 21.0, 426.5, 336.0, 53.0 ]
				}

			}
, 			{
				"box" : 				{
					"id" : "obj-24",
					"maxclass" : "newobj",
					"numinlets" : 1,
					"numoutlets" : 3,
					"outlettype" : [ "int", "int", "int" ],
					"patching_rect" : [ 86.0, 599.0, 77.0, 22.0 ],
					"text" : "unpack 0 0 0"
				}

			}
, 			{
				"box" : 				{
					"bgcolor" : [ 1.0, 0.659664, 0.937295, 1.0 ],
					"elementcolor" : [ 0.349019607843137, 0.349019607843137, 0.349019607843137, 0.15 ],
					"floatoutput" : 1,
					"id" : "obj-25",
					"knobcolor" : [ 0.913725, 1.0, 0.0, 0.488336 ],
					"maxclass" : "slider",
					"numinlets" : 1,
					"numoutlets" : 1,
					"outlettype" : [ "" ],
					"parameter_enable" : 0,
					"patching_rect" : [ 86.0, 571.0, 336.0, 26.0 ],
					"presentation" : 1,
					"presentation_rect" : [ 757.0, 248.0, 336.0, 23.0 ],
					"size" : 1.0
				}

			}
, 			{
				"box" : 				{
					"id" : "obj-26",
					"maxclass" : "kslider",
					"numinlets" : 2,
					"numoutlets" : 2,
					"outlettype" : [ "int", "int" ],
					"parameter_enable" : 0,
					"patching_rect" : [ 86.0, 625.5, 336.0, 53.0 ],
					"presentation" : 1,
					"presentation_rect" : [ 757.0, 272.0, 336.0, 53.0 ]
				}

			}
, 			{
				"box" : 				{
					"id" : "obj-21",
					"maxclass" : "newobj",
					"numinlets" : 1,
					"numoutlets" : 3,
					"outlettype" : [ "int", "int", "int" ],
					"patching_rect" : [ 86.0, 397.5, 77.0, 22.0 ],
					"text" : "unpack 0 0 0"
				}

			}
, 			{
				"box" : 				{
					"bgcolor" : [ 1.0, 0.659664, 0.937295, 1.0 ],
					"elementcolor" : [ 0.349019607843137, 0.349019607843137, 0.349019607843137, 0.15 ],
					"floatoutput" : 1,
					"id" : "obj-22",
					"knobcolor" : [ 0.913725, 1.0, 0.0, 0.488336 ],
					"maxclass" : "slider",
					"numinlets" : 1,
					"numoutlets" : 1,
					"outlettype" : [ "" ],
					"parameter_enable" : 0,
					"patching_rect" : [ 86.0, 369.5, 336.0, 26.0 ],
					"presentation" : 1,
					"presentation_rect" : [ 393.0, 248.0, 340.0, 23.0 ],
					"size" : 1.0
				}

			}
, 			{
				"box" : 				{
					"id" : "obj-23",
					"maxclass" : "kslider",
					"numinlets" : 2,
					"numoutlets" : 2,
					"outlettype" : [ "int", "int" ],
					"parameter_enable" : 0,
					"patching_rect" : [ 86.0, 424.0, 336.0, 53.0 ],
					"presentation" : 1,
					"presentation_rect" : [ 393.0, 272.0, 336.0, 53.0 ]
				}

			}
, 			{
				"box" : 				{
					"id" : "obj-20",
					"maxclass" : "newobj",
					"numinlets" : 1,
					"numoutlets" : 3,
					"outlettype" : [ "int", "int", "int" ],
					"patching_rect" : [ 86.0, 193.0, 77.0, 22.0 ],
					"text" : "unpack 0 0 0"
				}

			}
, 			{
				"box" : 				{
					"bgcolor" : [ 1.0, 0.659664, 0.937295, 1.0 ],
					"elementcolor" : [ 0.349019607843137, 0.349019607843137, 0.349019607843137, 0.15 ],
					"floatoutput" : 1,
					"id" : "obj-17",
					"knobcolor" : [ 0.913725, 1.0, 0.0, 0.488336 ],
					"maxclass" : "slider",
					"numinlets" : 1,
					"numoutlets" : 1,
					"outlettype" : [ "" ],
					"parameter_enable" : 0,
					"patching_rect" : [ 86.0, 165.0, 336.0, 26.0 ],
					"presentation" : 1,
					"presentation_rect" : [ 21.0, 247.0, 336.0, 24.0 ],
					"size" : 1.0
				}

			}
, 			{
				"box" : 				{
					"id" : "obj-15",
					"maxclass" : "kslider",
					"numinlets" : 2,
					"numoutlets" : 2,
					"outlettype" : [ "int", "int" ],
					"parameter_enable" : 0,
					"patching_rect" : [ 86.0, 219.5, 336.0, 53.0 ],
					"presentation" : 1,
					"presentation_rect" : [ 21.0, 272.0, 336.0, 53.0 ]
				}

			}
, 			{
				"box" : 				{
					"id" : "obj-19",
					"maxclass" : "newobj",
					"numinlets" : 1,
					"numoutlets" : 0,
					"patching_rect" : [ 602.0, 224.0, 119.0, 22.0 ],
					"text" : "s perifitReadRateMS"
				}

			}
, 			{
				"box" : 				{
					"id" : "obj-18",
					"maxclass" : "newobj",
					"numinlets" : 1,
					"numoutlets" : 1,
					"outlettype" : [ "bang" ],
					"patching_rect" : [ 602.0, 128.0, 58.0, 22.0 ],
					"text" : "loadbang"
				}

			}
, 			{
				"box" : 				{
					"id" : "obj-16",
					"maxclass" : "message",
					"numinlets" : 2,
					"numoutlets" : 1,
					"outlettype" : [ "" ],
					"patching_rect" : [ 602.0, 159.0, 29.5, 22.0 ],
					"text" : "100"
				}

			}
, 			{
				"box" : 				{
					"id" : "obj-13",
					"maxclass" : "number",
					"numinlets" : 1,
					"numoutlets" : 2,
					"outlettype" : [ "", "bang" ],
					"parameter_enable" : 0,
					"patching_rect" : [ 602.0, 188.0, 50.0, 22.0 ]
				}

			}
, 			{
				"box" : 				{
					"id" : "obj-61",
					"maxclass" : "newobj",
					"numinlets" : 1,
					"numoutlets" : 1,
					"outlettype" : [ "" ],
					"patching_rect" : [ 857.0, 320.0, 70.0, 22.0 ],
					"text" : "loadmess 0"
				}

			}
, 			{
				"box" : 				{
					"id" : "obj-83",
					"maxclass" : "newobj",
					"numinlets" : 1,
					"numoutlets" : 0,
					"patching_rect" : [ 715.318695068359375, 400.956050992012024, 84.0, 22.0 ],
					"text" : "s #0start_stop"
				}

			}
, 			{
				"box" : 				{
					"fontname" : "Cooper Std Black",
					"fontsize" : 14.0,
					"id" : "obj-66",
					"maxclass" : "comment",
					"numinlets" : 1,
					"numoutlets" : 0,
					"patching_rect" : [ 730.0, 283.5, 219.0, 20.0 ],
					"presentation" : 1,
					"presentation_rect" : [ 53.0, 9.0, 95.0, 20.0 ],
					"text" : "Start/Stop"
				}

			}
, 			{
				"box" : 				{
					"id" : "obj-48",
					"maxclass" : "toggle",
					"numinlets" : 1,
					"numoutlets" : 1,
					"outlettype" : [ "int" ],
					"parameter_enable" : 0,
					"patching_rect" : [ 730.0, 307.5, 44.0, 44.0 ],
					"presentation" : 1,
					"presentation_rect" : [ 7.0, 9.0, 44.0, 44.0 ]
				}

			}
, 			{
				"box" : 				{
					"id" : "obj-40",
					"maxclass" : "ezdac~",
					"numinlets" : 2,
					"numoutlets" : 0,
					"patching_rect" : [ 771.0, 307.5, 45.0, 45.0 ],
					"presentation" : 1,
					"presentation_rect" : [ 181.0, 9.5, 45.0, 45.0 ]
				}

			}
, 			{
				"box" : 				{
					"fontname" : "Arial",
					"fontsize" : 12.0,
					"id" : "obj-29",
					"maxclass" : "newobj",
					"numinlets" : 2,
					"numoutlets" : 9,
					"outlettype" : [ "int", "int", "float", "float", "float", "", "int", "float", "" ],
					"patching_rect" : [ 730.0, 355.5, 127.0, 22.0 ],
					"presentation" : 1,
					"presentation_rect" : [ 53.0, 31.0, 78.0, 22.0 ],
					"text" : "transport"
				}

			}
, 			{
				"box" : 				{
					"fontname" : "Cooper Std",
					"fontsize" : 18.0,
					"id" : "obj-14",
					"maxclass" : "comment",
					"numinlets" : 1,
					"numoutlets" : 0,
					"patching_rect" : [ 449.0, 53.0, 317.0, 24.0 ],
					"presentation" : 1,
					"presentation_rect" : [ 323.0, 9.0, 261.0, 24.0 ],
					"text" : "Start all instruments at scene 1"
				}

			}
, 			{
				"box" : 				{
					"bgcolor" : [ 0.590918004512787, 0.655645608901978, 0.925505757331848, 1.0 ],
					"blinkcolor" : [ 0.818687975406647, 0.505210161209106, 0.82527768611908, 1.0 ],
					"id" : "obj-12",
					"maxclass" : "button",
					"numinlets" : 1,
					"numoutlets" : 1,
					"outlettype" : [ "bang" ],
					"outlinecolor" : [ 0.786061465740204, 0.485019505023956, 0.792389512062073, 1.0 ],
					"parameter_enable" : 0,
					"patching_rect" : [ 421.0, 53.0, 24.0, 24.0 ],
					"presentation" : 1,
					"presentation_rect" : [ 272.0, 9.0, 46.0, 46.0 ]
				}

			}
, 			{
				"box" : 				{
					"id" : "obj-5",
					"maxclass" : "newobj",
					"numinlets" : 1,
					"numoutlets" : 0,
					"patching_rect" : [ 421.0, 92.0, 112.0, 22.0 ],
					"text" : "s globalstartscene1"
				}

			}
, 			{
				"box" : 				{
					"fontname" : "Cooper Std",
					"fontsize" : 18.0,
					"id" : "obj-11",
					"maxclass" : "comment",
					"numinlets" : 1,
					"numoutlets" : 0,
					"patching_rect" : [ 125.0, 60.0, 273.0, 24.0 ],
					"presentation" : 1,
					"presentation_rect" : [ 0.0, -17.0, 271.0, 24.0 ],
					"text" : "Master Controller"
				}

			}
, 			{
				"box" : 				{
					"fontname" : "Cooper Std",
					"fontsize" : 18.0,
					"id" : "obj-9",
					"maxclass" : "comment",
					"numinlets" : 1,
					"numoutlets" : 0,
					"patching_rect" : [ 219.0, 790.333338141441345, 280.0, 24.0 ],
					"presentation" : 1,
					"presentation_rect" : [ 147.0, 378.0, 214.0, 24.0 ],
					"text" : "click to open instrument 4"
				}

			}
, 			{
				"box" : 				{
					"fontname" : "Cooper Std",
					"fontsize" : 18.0,
					"id" : "obj-8",
					"maxclass" : "comment",
					"numinlets" : 1,
					"numoutlets" : 0,
					"patching_rect" : [ 219.0, 541.0, 280.0, 24.0 ],
					"presentation" : 1,
					"presentation_rect" : [ 883.0, 221.5, 214.0, 24.0 ],
					"text" : "click to open instrument 3"
				}

			}
, 			{
				"box" : 				{
					"fontname" : "Cooper Std",
					"fontsize" : 18.0,
					"id" : "obj-7",
					"maxclass" : "comment",
					"numinlets" : 1,
					"numoutlets" : 0,
					"patching_rect" : [ 219.0, 342.0, 280.0, 24.0 ],
					"presentation" : 1,
					"presentation_rect" : [ 521.0, 223.0, 220.0, 24.0 ],
					"text" : "click to open instrument 2"
				}

			}
, 			{
				"box" : 				{
					"fontname" : "Cooper Std",
					"fontsize" : 18.0,
					"id" : "obj-6",
					"maxclass" : "comment",
					"numinlets" : 1,
					"numoutlets" : 0,
					"patching_rect" : [ 219.0, 135.0, 280.0, 24.0 ],
					"presentation" : 1,
					"presentation_rect" : [ 147.0, 223.0, 216.0, 24.0 ],
					"text" : "click to open instrument 1"
				}

			}
, 			{
				"box" : 				{
					"fontname" : "Cooper Std Black",
					"fontsize" : 14.0,
					"id" : "obj-3",
					"maxclass" : "newobj",
					"numinlets" : 3,
					"numoutlets" : 3,
					"outlettype" : [ "", "", "" ],
					"patching_rect" : [ 86.0, 789.333338141441345, 126.0, 22.0 ],
					"presentation" : 1,
					"presentation_rect" : [ 21.0, 377.0, 126.0, 22.0 ],
					"text" : "vchorusReceive"
				}

			}
, 			{
				"box" : 				{
					"fontname" : "Cooper Std Black",
					"fontsize" : 14.0,
					"id" : "obj-4",
					"maxclass" : "newobj",
					"numinlets" : 3,
					"numoutlets" : 3,
					"outlettype" : [ "", "", "" ],
					"patching_rect" : [ 86.0, 541.0, 126.0, 22.0 ],
					"presentation" : 1,
					"presentation_rect" : [ 757.0, 221.5, 126.0, 22.0 ],
					"text" : "vchorusReceive"
				}

			}
, 			{
				"box" : 				{
					"fontname" : "Cooper Std Black",
					"fontsize" : 14.0,
					"id" : "obj-2",
					"maxclass" : "newobj",
					"numinlets" : 3,
					"numoutlets" : 3,
					"outlettype" : [ "", "", "" ],
					"patching_rect" : [ 86.0, 342.0, 126.0, 22.0 ],
					"presentation" : 1,
					"presentation_rect" : [ 393.0, 223.0, 126.0, 22.0 ],
					"text" : "vchorusReceive"
				}

			}
, 			{
				"box" : 				{
					"fontname" : "Cooper Std Black",
					"fontsize" : 14.0,
					"id" : "obj-1",
					"maxclass" : "newobj",
					"numinlets" : 3,
					"numoutlets" : 3,
					"outlettype" : [ "", "", "" ],
					"patching_rect" : [ 86.0, 135.0, 126.0, 22.0 ],
					"presentation" : 1,
					"presentation_rect" : [ 21.0, 223.0, 126.0, 22.0 ],
					"text" : "vchorusReceive"
				}

			}
 ],
		"lines" : [ 			{
				"patchline" : 				{
					"destination" : [ "obj-17", 0 ],
					"source" : [ "obj-1", 0 ]
				}

			}
, 			{
				"patchline" : 				{
					"destination" : [ "obj-20", 0 ],
					"source" : [ "obj-1", 1 ]
				}

			}
, 			{
				"patchline" : 				{
					"destination" : [ "obj-1", 1 ],
					"source" : [ "obj-10", 0 ]
				}

			}
, 			{
				"patchline" : 				{
					"destination" : [ "obj-5", 0 ],
					"source" : [ "obj-12", 0 ]
				}

			}
, 			{
				"patchline" : 				{
					"destination" : [ "obj-19", 0 ],
					"source" : [ "obj-13", 0 ]
				}

			}
, 			{
				"patchline" : 				{
					"destination" : [ "obj-13", 0 ],
					"source" : [ "obj-16", 0 ]
				}

			}
, 			{
				"patchline" : 				{
					"destination" : [ "obj-16", 0 ],
					"source" : [ "obj-18", 0 ]
				}

			}
, 			{
				"patchline" : 				{
					"destination" : [ "obj-21", 0 ],
					"source" : [ "obj-2", 1 ]
				}

			}
, 			{
				"patchline" : 				{
					"destination" : [ "obj-22", 0 ],
					"source" : [ "obj-2", 0 ]
				}

			}
, 			{
				"patchline" : 				{
					"destination" : [ "obj-15", 1 ],
					"source" : [ "obj-20", 1 ]
				}

			}
, 			{
				"patchline" : 				{
					"destination" : [ "obj-15", 0 ],
					"source" : [ "obj-20", 0 ]
				}

			}
, 			{
				"patchline" : 				{
					"destination" : [ "obj-23", 1 ],
					"source" : [ "obj-21", 1 ]
				}

			}
, 			{
				"patchline" : 				{
					"destination" : [ "obj-23", 0 ],
					"source" : [ "obj-21", 0 ]
				}

			}
, 			{
				"patchline" : 				{
					"destination" : [ "obj-26", 1 ],
					"source" : [ "obj-24", 1 ]
				}

			}
, 			{
				"patchline" : 				{
					"destination" : [ "obj-26", 0 ],
					"source" : [ "obj-24", 0 ]
				}

			}
, 			{
				"patchline" : 				{
					"destination" : [ "obj-30", 1 ],
					"source" : [ "obj-27", 1 ]
				}

			}
, 			{
				"patchline" : 				{
					"destination" : [ "obj-30", 0 ],
					"source" : [ "obj-27", 0 ]
				}

			}
, 			{
				"patchline" : 				{
					"destination" : [ "obj-27", 0 ],
					"source" : [ "obj-3", 1 ]
				}

			}
, 			{
				"patchline" : 				{
					"destination" : [ "obj-28", 0 ],
					"source" : [ "obj-3", 0 ]
				}

			}
, 			{
				"patchline" : 				{
					"destination" : [ "obj-33", 1 ],
					"source" : [ "obj-31", 1 ]
				}

			}
, 			{
				"patchline" : 				{
					"destination" : [ "obj-33", 0 ],
					"source" : [ "obj-31", 0 ]
				}

			}
, 			{
				"patchline" : 				{
					"destination" : [ "obj-36", 1 ],
					"source" : [ "obj-34", 1 ]
				}

			}
, 			{
				"patchline" : 				{
					"destination" : [ "obj-36", 0 ],
					"source" : [ "obj-34", 0 ]
				}

			}
, 			{
				"patchline" : 				{
					"destination" : [ "obj-31", 0 ],
					"source" : [ "obj-39", 1 ]
				}

			}
, 			{
				"patchline" : 				{
					"destination" : [ "obj-32", 0 ],
					"source" : [ "obj-39", 0 ]
				}

			}
, 			{
				"patchline" : 				{
					"destination" : [ "obj-24", 0 ],
					"source" : [ "obj-4", 1 ]
				}

			}
, 			{
				"patchline" : 				{
					"destination" : [ "obj-25", 0 ],
					"source" : [ "obj-4", 0 ]
				}

			}
, 			{
				"patchline" : 				{
					"destination" : [ "obj-34", 0 ],
					"source" : [ "obj-41", 1 ]
				}

			}
, 			{
				"patchline" : 				{
					"destination" : [ "obj-35", 0 ],
					"source" : [ "obj-41", 0 ]
				}

			}
, 			{
				"patchline" : 				{
					"destination" : [ "obj-2", 0 ],
					"source" : [ "obj-42", 0 ]
				}

			}
, 			{
				"patchline" : 				{
					"destination" : [ "obj-2", 1 ],
					"source" : [ "obj-43", 0 ]
				}

			}
, 			{
				"patchline" : 				{
					"destination" : [ "obj-55", 1 ],
					"source" : [ "obj-44", 1 ]
				}

			}
, 			{
				"patchline" : 				{
					"destination" : [ "obj-55", 0 ],
					"source" : [ "obj-44", 0 ]
				}

			}
, 			{
				"patchline" : 				{
					"destination" : [ "obj-4", 1 ],
					"source" : [ "obj-45", 0 ]
				}

			}
, 			{
				"patchline" : 				{
					"destination" : [ "obj-3", 1 ],
					"source" : [ "obj-46", 0 ]
				}

			}
, 			{
				"patchline" : 				{
					"destination" : [ "obj-41", 1 ],
					"source" : [ "obj-47", 0 ]
				}

			}
, 			{
				"patchline" : 				{
					"destination" : [ "obj-29", 0 ],
					"order" : 1,
					"source" : [ "obj-48", 0 ]
				}

			}
, 			{
				"patchline" : 				{
					"destination" : [ "obj-40", 0 ],
					"order" : 0,
					"source" : [ "obj-48", 0 ]
				}

			}
, 			{
				"patchline" : 				{
					"destination" : [ "obj-83", 0 ],
					"order" : 2,
					"source" : [ "obj-48", 0 ]
				}

			}
, 			{
				"patchline" : 				{
					"destination" : [ "obj-39", 1 ],
					"source" : [ "obj-49", 0 ]
				}

			}
, 			{
				"patchline" : 				{
					"destination" : [ "obj-1", 0 ],
					"source" : [ "obj-50", 0 ]
				}

			}
, 			{
				"patchline" : 				{
					"destination" : [ "obj-4", 0 ],
					"source" : [ "obj-51", 0 ]
				}

			}
, 			{
				"patchline" : 				{
					"destination" : [ "obj-3", 0 ],
					"source" : [ "obj-52", 0 ]
				}

			}
, 			{
				"patchline" : 				{
					"destination" : [ "obj-41", 0 ],
					"source" : [ "obj-53", 0 ]
				}

			}
, 			{
				"patchline" : 				{
					"destination" : [ "obj-39", 0 ],
					"source" : [ "obj-54", 0 ]
				}

			}
, 			{
				"patchline" : 				{
					"destination" : [ "obj-637", 0 ],
					"source" : [ "obj-55", 0 ]
				}

			}
, 			{
				"patchline" : 				{
					"destination" : [ "obj-588", 0 ],
					"source" : [ "obj-584", 0 ]
				}

			}
, 			{
				"patchline" : 				{
					"destination" : [ "obj-588", 2 ],
					"source" : [ "obj-585", 0 ]
				}

			}
, 			{
				"patchline" : 				{
					"destination" : [ "obj-591", 0 ],
					"source" : [ "obj-588", 0 ]
				}

			}
, 			{
				"patchline" : 				{
					"destination" : [ "obj-584", 0 ],
					"source" : [ "obj-590", 0 ]
				}

			}
, 			{
				"patchline" : 				{
					"destination" : [ "obj-601", 0 ],
					"source" : [ "obj-597", 0 ]
				}

			}
, 			{
				"patchline" : 				{
					"destination" : [ "obj-596", 0 ],
					"source" : [ "obj-598", 0 ]
				}

			}
, 			{
				"patchline" : 				{
					"destination" : [ "obj-598", 2 ],
					"source" : [ "obj-599", 0 ]
				}

			}
, 			{
				"patchline" : 				{
					"destination" : [ "obj-598", 0 ],
					"source" : [ "obj-601", 0 ]
				}

			}
, 			{
				"patchline" : 				{
					"destination" : [ "obj-607", 0 ],
					"source" : [ "obj-604", 0 ]
				}

			}
, 			{
				"patchline" : 				{
					"destination" : [ "obj-40", 0 ],
					"order" : 0,
					"source" : [ "obj-61", 0 ]
				}

			}
, 			{
				"patchline" : 				{
					"destination" : [ "obj-48", 0 ],
					"order" : 1,
					"source" : [ "obj-61", 0 ]
				}

			}
, 			{
				"patchline" : 				{
					"destination" : [ "obj-618", 0 ],
					"source" : [ "obj-615", 0 ]
				}

			}
, 			{
				"patchline" : 				{
					"destination" : [ "obj-614", 0 ],
					"source" : [ "obj-616", 0 ]
				}

			}
, 			{
				"patchline" : 				{
					"destination" : [ "obj-616", 2 ],
					"source" : [ "obj-617", 0 ]
				}

			}
, 			{
				"patchline" : 				{
					"destination" : [ "obj-616", 0 ],
					"source" : [ "obj-618", 0 ]
				}

			}
, 			{
				"patchline" : 				{
					"destination" : [ "obj-624", 0 ],
					"source" : [ "obj-621", 0 ]
				}

			}
, 			{
				"patchline" : 				{
					"destination" : [ "obj-620", 0 ],
					"source" : [ "obj-622", 0 ]
				}

			}
, 			{
				"patchline" : 				{
					"destination" : [ "obj-622", 2 ],
					"source" : [ "obj-623", 0 ]
				}

			}
, 			{
				"patchline" : 				{
					"destination" : [ "obj-622", 0 ],
					"source" : [ "obj-624", 0 ]
				}

			}
, 			{
				"patchline" : 				{
					"destination" : [ "obj-630", 0 ],
					"source" : [ "obj-627", 0 ]
				}

			}
, 			{
				"patchline" : 				{
					"destination" : [ "obj-626", 0 ],
					"source" : [ "obj-628", 0 ]
				}

			}
, 			{
				"patchline" : 				{
					"destination" : [ "obj-628", 2 ],
					"source" : [ "obj-629", 0 ]
				}

			}
, 			{
				"patchline" : 				{
					"destination" : [ "obj-628", 0 ],
					"source" : [ "obj-630", 0 ]
				}

			}
, 			{
				"patchline" : 				{
					"destination" : [ "obj-636", 0 ],
					"source" : [ "obj-633", 0 ]
				}

			}
, 			{
				"patchline" : 				{
					"destination" : [ "obj-632", 0 ],
					"source" : [ "obj-634", 0 ]
				}

			}
, 			{
				"patchline" : 				{
					"destination" : [ "obj-634", 2 ],
					"source" : [ "obj-635", 0 ]
				}

			}
, 			{
				"patchline" : 				{
					"destination" : [ "obj-634", 0 ],
					"source" : [ "obj-636", 0 ]
				}

			}
, 			{
				"patchline" : 				{
					"destination" : [ "obj-44", 1 ],
					"order" : 0,
					"source" : [ "obj-640", 2 ]
				}

			}
, 			{
				"patchline" : 				{
					"destination" : [ "obj-643", 1 ],
					"order" : 0,
					"source" : [ "obj-640", 0 ]
				}

			}
, 			{
				"patchline" : 				{
					"destination" : [ "obj-650", 1 ],
					"order" : 2,
					"source" : [ "obj-640", 2 ]
				}

			}
, 			{
				"patchline" : 				{
					"destination" : [ "obj-650", 0 ],
					"order" : 1,
					"source" : [ "obj-640", 0 ]
				}

			}
, 			{
				"patchline" : 				{
					"destination" : [ "obj-664", 1 ],
					"order" : 1,
					"source" : [ "obj-640", 2 ]
				}

			}
, 			{
				"patchline" : 				{
					"destination" : [ "obj-44", 0 ],
					"source" : [ "obj-650", 0 ]
				}

			}
 ],
		"dependency_cache" : [ 			{
				"name" : "vchorusReceive.maxpat",
				"bootpath" : "~/Documents/htdocs/vchorus/vchorus_max/vchorusReceive/patchers",
				"patcherrelativepath" : ".",
				"type" : "JSON",
				"implicit" : 1
			}
, 			{
				"name" : "dynamic_scaling_2.maxpat",
				"bootpath" : "~/Documents/htdocs/vchorus/vchorus_max/vchorusReceive/patchers",
				"patcherrelativepath" : ".",
				"type" : "JSON",
				"implicit" : 1
			}
, 			{
				"name" : "keyBoardChordTracker.jsfile",
				"bootpath" : "~/Documents/htdocs/vchorus/vchorus_max/vchorusReceive/other",
				"patcherrelativepath" : "../other",
				"type" : "TEXT",
				"implicit" : 1
			}
, 			{
				"name" : "uniqueList.jsfile",
				"bootpath" : "~/Documents/htdocs/vchorus/vchorus_max/vchorusReceive/other",
				"patcherrelativepath" : "../other",
				"type" : "TEXT",
				"implicit" : 1
			}
, 			{
				"name" : "devices.txt",
				"bootpath" : "~/Documents/htdocs/vchorus/vchorus_max/vchorusReceive/data",
				"patcherrelativepath" : "../data",
				"type" : "TEXT",
				"implicit" : 1
			}
, 			{
				"name" : "serialPortIdentifier.maxpat",
				"bootpath" : "~/Documents/htdocs/vchorus/vchorus_max/vchorusReceive/patchers",
				"patcherrelativepath" : ".",
				"type" : "JSON",
				"implicit" : 1
			}
, 			{
				"name" : "dynamic_scaling.maxpat",
				"bootpath" : "~/Documents/htdocs/vchorus/vchorus_max/vchorusReceive/patchers",
				"patcherrelativepath" : ".",
				"type" : "JSON",
				"implicit" : 1
			}
 ],
		"autosave" : 0
	}

}
